<svg width="15" height="15" viewBox="0 0 15 15" fill="none" xmlns="http://www.w3.org/2000/svg">
<path d="M10.6243 5.73057C10.5072 5.61417 10.3488 5.54883 10.1837 5.54883C10.0186 5.54883 9.86018 5.61417 9.74308 5.73057L7.49933 7.94307L5.28683 5.73057C5.16973 5.61417 5.01132 5.54883 4.8462 5.54883C4.68109 5.54883 4.52268 5.61417 4.40558 5.73057C4.347 5.78868 4.3005 5.8578 4.26877 5.93396C4.23704 6.01013 4.2207 6.09182 4.2207 6.17432C4.2207 6.25683 4.23704 6.33852 4.26877 6.41468C4.3005 6.49085 4.347 6.55997 4.40558 6.61807L7.05558 9.26807C7.11368 9.32665 7.1828 9.37315 7.25897 9.40488C7.33513 9.43661 7.41682 9.45295 7.49933 9.45295C7.58183 9.45295 7.66353 9.43661 7.73969 9.40488C7.81585 9.37315 7.88498 9.32665 7.94308 9.26807L10.6243 6.61807C10.6829 6.55997 10.7294 6.49085 10.7611 6.41468C10.7929 6.33852 10.8092 6.25683 10.8092 6.17432C10.8092 6.09182 10.7929 6.01013 10.7611 5.93396C10.7294 5.8578 10.6829 5.78868 10.6243 5.73057Z" fill="#AEAEAE"/>
</svg>
